HIERARCHY
ROOT Hips
{
	OFFSET 0.000000 88.474243 0.000000
	CHANNELS 6 Xposition Yposition Zposition Zrotation Yrotation Xrotation 
	JOINT Hips_Spine
	{
		OFFSET 0.000000 0.000000 0.000000
		CHANNELS 3 Zrotation Yrotation Xrotation
		JOINT Spine
		{
			OFFSET 0.005100 8.711998 -0.691000
			CHANNELS 3 Zrotation Yrotation Xrotation
			JOINT Spine1
			{
				OFFSET -0.009200 8.660301 -1.275000
				CHANNELS 3 Zrotation Yrotation Xrotation
				JOINT Spine2
				{
					OFFSET 0.006300 9.852501 -1.857000
					CHANNELS 3 Zrotation Yrotation Xrotation
					JOINT Spine2_Neck
					{
						OFFSET 0.000000 0.000000 0.000000
						CHANNELS 3 Zrotation Yrotation Xrotation
						JOINT Neck
						{
							OFFSET 0.016300 11.420799 -0.263300
							CHANNELS 3 Zrotation Yrotation Xrotation
							End Site #name: Head
							{
								OFFSET -0.019200 9.262405 2.362500
							}
						}
					}
					JOINT Spine2_LeftShoulder
					{
						OFFSET 0.000000 0.000000 0.000000
						CHANNELS 3 Zrotation Yrotation Xrotation
						JOINT LeftShoulder
						{
							OFFSET 5.616900 6.732201 -0.345700
							CHANNELS 3 Zrotation Yrotation Xrotation
							JOINT LeftArm
							{
								OFFSET 10.664888 -0.183372 -2.440700
								CHANNELS 3 Zrotation Yrotation Xrotation
								JOINT LeftForeArm
								{
									OFFSET 27.459126 0.000000 0.000000
									CHANNELS 3 Zrotation Yrotation Xrotation
									End Site #name: LeftHand
									{
										OFFSET 21.306858 0.000000 0.000000
									}
								}
							}
						}
					}
					JOINT Spine2_RightShoulder
					{
						OFFSET 0.000000 0.000000 0.000000
						CHANNELS 3 Zrotation Yrotation Xrotation
						JOINT RightShoulder
						{
							OFFSET -5.580300 6.737503 -0.344400
							CHANNELS 3 Zrotation Yrotation Xrotation
							JOINT RightArm
							{
								OFFSET -10.679335 -0.188484 -2.383900
								CHANNELS 3 Zrotation Yrotation Xrotation
								JOINT RightForeArm
								{
									OFFSET -27.503529 0.000000 0.000000
									CHANNELS 3 Zrotation Yrotation Xrotation
									End Site #name: RightHand
									{
										OFFSET -21.306808 0.000000 0.000000
									}
								}
							}
						}
					}
				}
			}
		}
	}
	JOINT Hips_LeftUpLeg
	{
		OFFSET 0.000000 0.000000 0.000000
		CHANNELS 3 Zrotation Yrotation Xrotation
		JOINT LeftUpLeg
		{
			OFFSET 6.857700 -6.739601 0.312100
			CHANNELS 3 Zrotation Yrotation Xrotation
			JOINT LeftLeg
			{
				OFFSET -0.367590 -34.731552 -4.572400
				CHANNELS 3 Zrotation Yrotation Xrotation
				End Site #name: LeftFoot
				{
					OFFSET 0.367590 -34.656704 -6.067400
				}
			}
		}
	}
	JOINT Hips_RightUpLeg
	{
		OFFSET 0.000000 0.000000 0.000000
		CHANNELS 3 Zrotation Yrotation Xrotation
		JOINT RightUpLeg
		{
			OFFSET -6.876100 -6.733299 0.301000
			CHANNELS 3 Zrotation Yrotation Xrotation
			JOINT RightLeg
			{
				OFFSET 0.347353 -34.795158 -4.515900
				CHANNELS 3 Zrotation Yrotation Xrotation
				End Site #name: RightFoot
				{
					OFFSET -0.347353 -34.589367 -6.070300
				}
			}
		}
	}
}
MOTION
Frames: 15
Frame Time: 0.041667
2.829015 0.852481 -4.841630 175.361251 -8.079747 -178.307066 0.000000 -0.000000 0.000000 -5.984505 -0.559462 4.223568 0.451909 -1.969838 0.114565 0.000000 0.000000 0.000000 1.036478 -1.818514 0.725134 2.597635 -31.186033 -3.540293 -0.003672 -1.588549 -1.023397 1.722493 -7.287209 0.883668 -86.068945 -22.872376 13.207813 3.320831 -17.556367 -0.275004 0.385559 -2.498969 -0.388735 15.990511 14.802615 4.199448 55.477358 9.336142 10.043845 -1.633064 51.959717 2.498484 0.000000 0.000000 -0.000000 -3.272776 15.206839 -4.987530 0.172836 -36.844979 -15.066831 0.000000 0.000000 -0.000000 -4.086264 -52.796001 -10.551639 -11.970770 -6.414591 21.114768 
2.888779 0.920534 -4.967797 175.292656 -6.898946 -178.314080 0.000000 -0.000000 0.000000 -6.275363 -0.471933 4.381064 0.439513 -1.854814 0.040037 0.000000 0.000000 0.000000 1.006204 -1.769498 0.633198 2.293197 -29.981360 -4.025104 -0.008974 -1.522743 -1.044383 1.758710 -7.754748 1.027791 -85.891052 -23.011963 13.385965 3.200849 -18.689129 -0.505093 0.387954 -2.419772 -0.455180 15.673025 14.783324 4.241877 55.453343 9.243241 10.332729 -1.912789 51.620850 2.225301 0.000000 0.000000 -0.000000 -3.322753 14.918733 -5.523327 -0.022752 -36.652158 -14.433809 0.000000 0.000000 -0.000000 -3.901050 -51.738494 -10.517147 -11.376753 -5.492309 20.595254 
2.950780 0.988725 -5.089007 175.178397 -6.022935 -178.293021 0.000000 -0.000000 0.000000 -6.560353 -0.336423 4.541538 0.423209 -1.744538 -0.057897 0.000000 0.000000 0.000000 0.970244 -1.705232 0.531623 2.053306 -28.697561 -4.680650 -0.013168 -1.439559 -1.060214 1.826708 -8.004849 1.049644 -85.651424 -23.139705 13.520503 3.156850 -20.022216 -0.649602 0.391892 -2.323406 -0.520793 15.361059 14.767606 4.288878 55.438524 9.152610 10.627065 -2.174459 51.288679 1.966921 0.000000 0.000000 -0.000000 -3.378264 14.633272 -6.056407 -0.223350 -36.465043 -13.791603 0.000000 0.000000 -0.000000 -3.796827 -50.887809 -10.380289 -10.856908 -4.559696 20.065532 
3.016184 1.055098 -5.207245 174.991492 -5.523976 -178.244411 -0.000000 -0.000000 0.000000 -6.848333 -0.165719 4.737792 0.398424 -1.629561 -0.148626 0.000000 0.000000 0.000000 0.932177 -1.627775 0.435124 1.887675 -27.408178 -5.492350 -0.019464 -1.342194 -1.064519 1.889999 -8.205839 1.063134 -85.337900 -23.260796 13.617207 3.166765 -21.560932 -0.758608 0.390731 -2.210577 -0.574032 15.036254 14.782914 4.337440 55.435340 9.082474 10.899012 -2.431236 50.998144 1.713325 0.000000 0.000000 -0.000000 -3.433060 14.298181 -6.573092 -0.439013 -36.310770 -13.151099 0.000000 0.000000 -0.000000 -3.763029 -50.387286 -10.154149 -10.337400 -3.498386 19.545141 
3.086067 1.118006 -5.324080 174.753182 -5.287174 -178.180634 -0.000000 -0.000000 0.000000 -7.139496 0.008040 4.947998 0.355095 -1.514290 -0.209284 0.000000 0.000000 0.000000 0.891066 -1.552858 0.353915 1.545565 -26.160100 -6.414472 -0.034226 -1.237203 -1.059394 1.949516 -8.367956 1.065612 -85.000362 -23.388572 13.689764 3.218844 -23.301835 -0.874112 0.376950 -2.093535 -0.618024 14.705716 14.865925 4.389378 55.444757 9.018203 11.160968 -2.608800 50.755972 1.555042 0.000000 0.000000 -0.000000 -3.492324 13.928718 -7.068547 -0.682827 -36.182195 -12.500321 0.000000 0.000000 -0.000000 -3.788163 -50.362122 -9.880171 -9.807695 -2.268971 19.078068 
3.162760 1.177060 -5.439507 174.468645 -5.393821 -178.105073 -0.000000 -0.000000 0.000000 -7.445887 0.179190 5.156475 0.288358 -1.410079 -0.237439 0.000000 0.000000 0.000000 0.850860 -1.485780 0.278405 1.457984 -24.687904 -7.644441 -0.053240 -1.134888 -1.046155 1.992749 -8.493471 1.073374 -84.656018 -23.521888 13.796879 3.313985 -25.201522 -0.988262 0.359198 -1.984406 -0.663458 14.379107 15.014769 4.466199 55.444438 8.987798 11.300001 -2.712435 50.661235 1.481273 0.000000 0.000000 -0.000000 -3.559753 13.527163 -7.538915 -0.955527 -36.097459 -11.815130 0.000000 -0.000000 -0.000000 -3.918714 -50.818476 -9.506243 -9.168431 -1.044270 18.603379 
3.248683 1.232448 -5.552785 174.144807 -5.800575 -178.011912 -0.000000 -0.000000 0.000000 -7.784691 0.336809 5.406109 0.217906 -1.313700 -0.259371 0.000000 0.000000 0.000000 0.814799 -1.425641 0.225834 1.297261 -23.174745 -8.646780 -0.076306 -1.039950 -1.026273 2.023809 -8.614104 1.099769 -84.312765 -23.650704 13.855007 3.446351 -27.201704 -1.109324 0.342275 -1.886157 -0.702424 14.064489 15.242528 4.555459 55.442257 9.013949 11.333555 -2.802691 50.795703 1.413482 0.000000 0.000000 -0.000000 -3.650773 13.113213 -8.002349 -1.258352 -36.104498 -11.069592 0.000000 -0.000000 -0.000000 -4.161466 -51.712168 -9.114342 -8.511657 0.046101 18.277319 
3.343441 1.282459 -5.663073 173.791778 -6.451039 -177.906631 -0.000000 -0.000000 0.000000 -8.124513 0.460223 5.729428 0.151215 -1.246778 -0.235341 0.000000 0.000000 0.000000 0.784075 -1.394550 0.210428 1.178901 -21.566265 -9.838753 -0.102452 -0.959075 -0.983262 2.052590 -8.746770 1.130827 -83.950411 -23.764875 13.880729 3.623874 -29.746493 -1.251799 0.328764 -1.804186 -0.710723 13.755383 15.547861 4.663745 55.435884 9.073918 11.278170 -2.873364 51.157736 1.351572 0.000000 0.000000 -0.000000 -3.805248 12.696807 -8.514832 -1.642889 -36.174347 -10.228267 0.000000 -0.000000 -0.000000 -4.477602 -52.937787 -8.719040 -7.753721 1.077149 18.082701 
3.444087 1.329702 -5.772559 173.414761 -7.133725 -177.788412 -0.000000 -0.000000 0.000000 -8.487421 0.502848 6.014040 0.085469 -1.221141 -0.171181 0.000000 0.000000 0.000000 0.768109 -1.378158 0.206602 1.068639 -19.769260 -11.129431 -0.137110 -0.929660 -0.934440 2.080586 -8.891583 1.162893 -83.587345 -23.903825 13.878100 3.889726 -33.352264 -1.441867 0.322434 -1.737909 -0.690694 13.447039 15.957115 4.787556 55.427224 9.178782 11.136064 -2.940610 51.808438 1.285534 0.000000 0.000000 -0.000000 -3.994614 12.348130 -9.054643 -2.064888 -36.346752 -9.318021 0.000000 -0.000000 -0.000000 -4.819541 -54.438869 -8.320122 -6.792243 2.233451 17.958159 
3.549531 1.374654 -5.883635 173.155516 -7.900989 -177.654962 -0.000000 -0.000000 0.000000 -8.892995 0.475030 6.301817 -0.004567 -1.206410 -0.105894 0.000000 0.000000 0.000000 0.735629 -1.376744 0.192996 0.937063 -17.854694 -12.318449 -0.175673 -0.918753 -0.896873 2.117789 -9.046862 1.197027 -83.251364 -23.997543 13.894297 4.202005 -36.789331 -1.637227 0.298910 -1.687646 -0.697101 13.148400 16.468175 4.913653 55.429680 9.344421 10.968555 -3.006876 52.726242 1.210210 0.000000 0.000000 -0.000000 -4.193722 12.107828 -9.586890 -2.538523 -36.571266 -8.286450 0.000000 -0.000000 -0.000000 -5.162155 -55.995638 -7.894372 -5.645312 3.525709 17.975369 
3.660182 1.420033 -5.993692 172.947560 -8.500563 -177.535623 -0.000000 -0.000000 0.000000 -9.374894 0.358125 6.570412 -0.110480 -1.199178 -0.069506 0.000000 0.000000 0.000000 0.683906 -1.389871 0.138884 0.839695 -15.924798 -13.380205 -0.228684 -0.913534 -0.875120 2.149755 -9.180307 1.227945 -82.929188 -24.091304 13.863563 4.541404 -39.863781 -1.850018 0.250673 -1.649561 -0.721917 12.857221 17.050769 5.022855 55.454443 9.547371 10.840284 -3.089492 53.825080 1.121160 0.000000 0.000000 -0.000000 -4.392245 11.954184 -10.038184 -3.064898 -36.858616 -7.174723 0.000000 -0.000000 -0.000000 -5.389196 -57.258120 -7.556927 -5.303302 4.334239 18.098155 
3.780364 1.469438 -6.102562 172.776385 -8.714116 -177.449677 -0.000000 -0.000000 0.000000 -9.830013 0.383400 6.793767 -0.225930 -1.204599 -0.038537 0.000000 0.000000 0.000000 0.593970 -1.399140 0.092584 0.745655 -14.149640 -14.307543 -0.294146 -0.912533 -0.867372 2.177675 -9.285221 1.254217 -82.599206 -24.221167 13.822389 4.902012 -42.505361 -2.051793 0.178055 -1.622617 -0.764646 12.602483 17.717796 5.090160 55.475877 9.738017 10.726638 -3.202649 55.078441 1.011072 0.000000 0.000000 -0.000000 -4.562263 11.888829 -10.366640 -3.627241 -37.170002 -6.054936 0.000000 -0.000000 -0.000000 -5.587133 -58.205646 -7.269868 -5.548948 4.668064 18.182472 
3.914772 1.523870 -6.210927 172.603468 -8.571503 -177.398233 -0.000000 -0.000000 0.000000 -10.258185 0.373899 6.976317 -0.355877 -1.224736 0.002620 0.000000 0.000000 0.000000 0.491165 -1.412249 0.049757 0.671954 -12.550884 -15.077301 -0.365659 -0.916834 -0.872031 2.189132 -9.341479 1.270891 -82.255047 -24.369518 13.771818 5.275203 -44.766968 -2.240625 0.093896 -1.606501 -0.821553 12.445183 18.361701 5.090644 55.478264 9.901743 10.546242 -3.345391 56.513950 0.865934 0.000000 0.000000 -0.000000 -4.709772 11.896975 -10.586402 -4.245204 -37.490867 -4.980085 0.000000 -0.000000 -0.000000 -5.676075 -58.663545 -7.148472 -5.800127 4.883794 18.209695 
4.065701 1.596635 -6.320664 172.389485 -8.226303 -177.385272 -0.000000 -0.000000 0.000000 -10.636387 0.322843 7.126820 -0.490700 -1.256005 0.058756 0.000000 0.000000 0.000000 0.373924 -1.426725 0.022306 0.560622 -10.839894 -15.848823 -0.438564 -0.926443 -0.878412 2.196577 -9.354570 1.277741 -81.897035 -24.486256 13.740317 5.640091 -46.652294 -2.414049 0.001340 -1.602708 -0.874013 12.338379 18.914905 5.038609 55.522148 9.952817 10.470575 -3.557626 58.554994 0.643365 0.000000 0.000000 -0.000000 -4.826811 11.974267 -10.662716 -4.799774 -37.881810 -4.140156 0.000000 -0.000000 -0.000000 -5.587925 -58.725071 -7.323725 -6.002540 5.046916 18.109197 
4.234955 1.704505 -6.432652 172.160153 -7.601028 -177.425091 -0.000000 -0.000000 0.000000 -10.799536 0.239520 7.114265 -0.618019 -1.302002 0.121529 0.000000 0.000000 0.000000 0.248210 -1.451827 0.035399 0.391958 -9.160078 -16.503679 -0.511209 -0.944305 -0.881251 2.191874 -9.316658 1.273358 -81.520245 -24.591961 13.712663 5.990599 -48.232617 -2.580915 -0.100307 -1.619192 -0.926500 12.275280 19.377771 4.889548 55.584092 10.033801 10.345501 -3.856267 60.894419 0.349295 0.000000 0.000000 -0.000000 -4.902097 12.143440 -10.598373 -5.243008 -38.252624 -3.562966 0.000000 0.000000 -0.000000 -5.116140 -58.204976 -7.947984 -6.180809 5.178055 17.941712 
